<?xml version="1.0" encoding="UTF-8" standalone="no"?>
<svg
   xml:space="preserve"
   width="32"
   height="32"
   viewBox="0 0 24 24"
   version="1.1"
   id="svg4"
   xmlns="http://www.w3.org/2000/svg"
   xmlns:svg="http://www.w3.org/2000/svg"><defs
   id="defs8" />
  <path
   fill="#ccccff"
   d="M 22.49608,6.17299 22.37076,5.98503 a 12.031332,12.029948 0 0 0 -20.80418,0 L 1.44125,6.17299 C 0.62663,7.61408 0.12533,9.24314 0,10.9975 v 2.005 c 0.12533,1.75436 0.62663,3.38342 1.44125,4.82451 l 0.12533,0.18796 a 12.031332,12.029948 0 0 0 20.80418,0 l 0.12532,-0.18796 C 23.3107,16.38592 23.81201,14.75686 24,13.0025 v -2.005 C 23.81201,9.24314 23.3107,7.61408 22.49608,6.17299 Z M 17.98433,10.9975 C 17.92163,9.93235 17.85901,8.92986 17.67102,7.99002 h 3.50914 c 0.37598,0.93984 0.68929,1.94233 0.75195,3.00748 z m -6.01566,11.02746 c -1.12794,0 -2.31854,-1.5664 -3.13316,-4.00999 h 6.26632 c -0.75196,2.44359 -2.00522,4.00999 -3.13316,4.00999 z M 8.3342,16.00998 C 8.14621,15.07014 8.02089,14.06765 8.02089,13.0025 h 7.95822 c -0.0627,1.06515 -0.18799,2.06764 -0.37598,3.00748 z M 8.02089,10.9975 c 0,-1.06515 0.12532,-2.06764 0.31331,-3.00748 h 7.26893 c 0.18799,0.93984 0.31332,1.94233 0.37598,3.00748 z m 3.94778,-9.02246 c 1.12794,0 2.3812,1.5664 3.13316,4.00999 H 8.83551 C 9.65013,3.54144 10.84073,1.97504 11.96867,1.97504 Z m 8.02089,4.00999 H 17.23238 C 16.91906,4.73191 16.48042,3.66675 15.91645,2.78957 c 1.62924,0.68922 3.00783,1.81702 4.07311,3.19546 z M 8.02089,2.78957 C 7.51958,3.66675 7.08094,4.73191 6.70496,5.98503 H 4.01044 C 5.01305,4.60659 6.39164,3.47879 8.02089,2.78957 Z M 2.81984,7.99002 H 6.26632 C 6.14099,8.92986 6.01567,9.93235 6.01567,10.9975 H 2.00522 C 2.13055,9.93235 2.3812,8.92986 2.81984,7.99002 Z m 3.19583,5.01248 c 0,1.06515 0.12532,2.06764 0.25065,3.00748 H 2.81984 C 2.3812,15.07014 2.13055,14.06765 2.00522,13.0025 Z m -2.00523,5.01247 h 2.69452 c 0.37598,1.25312 0.81462,2.31828 1.31593,3.19546 C 6.39164,20.52121 5.01305,19.39341 4.01044,18.01497 Z m 11.90601,3.19546 c 0.56397,-0.87718 1.00261,-1.94234 1.31593,-3.19546 h 2.75718 c -1.06528,1.37844 -2.44387,2.50624 -4.07311,3.19546 z m 5.26371,-5.20045 h -3.50914 c 0.18799,-0.93984 0.25065,-1.94233 0.31331,-3.00748 h 3.94778 c -0.0627,1.06515 -0.37597,2.06764 -0.75195,3.00748 z m 0,0"
   data-original="#000000"
   id="path2"
   style="stroke-width:0.0626596" />
</svg>
