<?xml version="1.0" encoding="UTF-8" standalone="no"?>
<svg
   width="57"
   height="57"
   viewBox="0 0 57 57"
   version="1.1"
   id="svg8"
   xmlns="http://www.w3.org/2000/svg"
   xmlns:svg="http://www.w3.org/2000/svg">
  <defs
     id="defs12" />
  <g
     id="g297"
     transform="translate(-0.1125,3.501)">
    <path
       fill-rule="evenodd"
       fill="rgb(255, 255, 255)"
       d="m 27.7,0.909 c -12.528,0 -22.684,10.124 -22.684,22.613 0,12.489 10.156,22.614 22.684,22.614 11.179,0 20.463,-8.064 22.335,-18.673 C 48.793,40.113 38.095,49.999 25.078,49.999 11.228,49.999 0,38.806 0,24.999 c 0,-13.807 11.228,-25 25.078,-25 3.85,0 7.496,0.867 10.756,2.413 C 33.308,1.444 30.568,0.909 27.7,0.909 Z"
       id="path2"
       style="fill:#ffffff" />
    <path
       fill-rule="evenodd"
       fill="#eb433a"
       d="M 57.225,7.706 28.741,36.272 H 28.74 l -0.991,0.997 -16.122,-16.047 6.799,-6.768 9.311,9.277 22.882,-22.599 z"
       id="path4" />
  </g>
</svg>
