<svg xmlns="http://www.w3.org/2000/svg" version="1.1" xmlns:xlink="http://www.w3.org/1999/xlink" xmlns:svgjs="http://svgjs.com/svgjs" width="512" height="512" x="0" y="0" viewBox="0 0 24 24" style="enable-background:new 0 0 512 512" xml:space="preserve" class=""><g transform="matrix(1.12,0,0,1.12,-1.4399999713897635,-1.4399999999999977)"><path d="M18.626 10.042c.081.31.124.632.124.958v7c0 .326-.043.648-.124.958l2.41.964a1.252 1.252 0 0 0 1.714-1.16v-8.524a1.252 1.252 0 0 0-1.714-1.16zM16.25 6V5a1.75 1.75 0 0 0-1.75-1.75H10A1.75 1.75 0 0 0 8.25 5v1c0 .967.784 1.75 1.75 1.75h4.5A1.75 1.75 0 0 0 16.25 6zM17.75 11c0-.729-.29-1.429-.805-1.945A2.755 2.755 0 0 0 15 8.25H4c-.729 0-1.429.29-1.945.805A2.755 2.755 0 0 0 1.25 11v7c0 .729.29 1.429.805 1.945A2.755 2.755 0 0 0 4 20.75h11c.729 0 1.429-.29 1.945-.805A2.755 2.755 0 0 0 17.75 18zM5 12.75h2a.75.75 0 0 0 0-1.5H5a.75.75 0 0 0 0 1.5z" fill="#ffffff" data-original="#000000" class=""></path><path d="M6.75 9V6.5A.25.25 0 0 1 7 6.25h2a.75.75 0 0 0 0-1.5H7A1.75 1.75 0 0 0 5.25 6.5V9a.75.75 0 0 0 1.5 0z" fill="#ffffff" data-original="#000000" class=""></path></g></svg>