<svg xmlns="http://www.w3.org/2000/svg" width="512" height="512" x="0" y="0" viewBox="0 0 152 152" class=""><g transform="matrix(1.1700000000000002,0,0,1.1700000000000002,-12.919999999999916,-12.911653823852475)"><path d="M11 47.9v42.6c0 12.1 9.8 21.9 21.9 21.9h63.6c4.5 0 8.2-3.7 8.2-8.2V61.5c0-12.1-9.8-21.9-21.9-21.9H19.2c-4.5 0-8.2 3.6-8.2 8zM112 95.3l17.6 15.4c2.8 2.5 7.2 2.2 9.7-.6 1.1-1.3 1.7-2.9 1.7-4.5V46.4c0-3.8-3.1-6.8-6.8-6.9-1.7 0-3.3.6-4.5 1.7L112 56.7c-1.5 1.3-2.3 3.2-2.3 5.2v28.3c0 1.9.9 3.8 2.3 5.1z" fill="#ffffff" data-original="#000000" class=""></path></g></svg>