<svg xmlns="http://www.w3.org/2000/svg" xml:space="preserve" width="32" height="32" viewBox="0 0 24 24">
    <style>
        @media (prefers-color-scheme: dark) {
            path { fill: #CCCCFF }
        }
    </style>
    <path fill="#333399" d="m22.5 6.2-.1-.2A12 12 0 0 0 1.6 6l-.2.2C.6 7.6.1 9.2 0 11v2c.1 1.8.6 3.4 1.4 4.8l.2.2a12 12 0 0 0 20.8 0l.1-.2c.8-1.4 1.3-3 1.5-4.8v-2c-.2-1.8-.7-3.4-1.5-4.8ZM18 11l-.3-3h3.5c.4 1 .7 2 .7 3zm-6 11c-1.2 0-2.3-1.5-3.2-4h6.3c-.8 2.5-2 4-3.1 4zm-3.7-6L8 13h8c0 1-.2 2-.4 3zM8 11l.3-3h7.3l.4 3zm4-9c1 0 2.3 1.5 3 4H8.8c.9-2.5 2-4 3.2-4Zm8 4h-2.8a9.3 9.3 0 0 0-1.3-3.2c1.6.7 3 1.8 4 3.2zM8 2.8c-.5.9-1 2-1.3 3.2H4c1-1.4 2.4-2.5 4-3.2ZM2.8 8h3.5L6 11H2c.1-1 .4-2 .8-3ZM6 13l.3 3H2.8c-.4-1-.7-2-.8-3Zm-2 5h2.7c.4 1.3.8 2.3 1.3 3.2-1.6-.7-3-1.8-4-3.2Zm12 3.2c.5-.9 1-2 1.2-3.2H20c-1 1.4-2.5 2.5-4 3.2zm5.2-5.2h-3.5l.3-3h4c-.1 1-.4 2-.8 3zm0 0" data-original="#000000" style="stroke-width:.0626596"/>
</svg>
