<svg class="" width="30" height="16" version="1.1" viewBox="0 0 8.9063 4.75" xmlns="http://www.w3.org/2000/svg">
	<g transform="matrix(.073077 0 0 .073301 -.80385 -2.8954)" fill="#efefef">
		<path class="" d="m11 46.967v37.867c0 10.756 9.1875 19.467 20.531 19.467h59.625c4.2187 0 7.6875-3.2889 7.6875-7.2889v-37.956c0-10.756-9.1875-19.467-20.531-19.467h-59.625c-4.2188 0-7.6875 3.2-7.6875 7.1111zm94.687 42.133 16.5 13.689c2.625 2.2222 6.75 1.9556 9.0938-0.53333 1.0312-1.1556 1.5938-2.5778 1.5938-4v-52.622c0-3.3778-2.9062-6.0444-6.375-6.1333-1.5938 0-3.0938 0.53333-4.2188 1.5111l-16.594 13.778c-1.4062 1.1556-2.1562 2.8444-2.1562 4.6222v25.156c0 1.6889 0.84375 3.3778 2.1562 4.5333z" fill="#efefef" stroke-width=".91287" data-original="#000000"/>
	</g>
</svg>
