<svg class="" width="26" height="16" version="1.1" viewBox="0 0 7.7188 4.75" xmlns="http://www.w3.org/2000/svg">
	<g transform="matrix(.073077 0 0 .073301 -.80385 -2.8954)" fill="#efefef">
		<path class="" d="m11 46.967v37.867c0 10.756 7.9625 19.467 17.794 19.467h51.675c3.6562 0 6.6625-3.2889 6.6625-7.2889v-37.956c0-10.756-7.9625-19.467-17.794-19.467h-51.675c-3.6562 0-6.6625 3.2-6.6625 7.1111zm82.063 42.133 14.3 13.689c2.275 2.2222 5.85 1.9556 7.8812-0.53333 0.89375-1.1556 1.3812-2.5778 1.3812-4v-52.622c0-3.3778-2.5188-6.0444-5.525-6.1333-1.3812 0-2.6812 0.53333-3.6562 1.5111l-14.381 13.778c-1.2188 1.1556-1.8688 2.8444-1.8688 4.6222v25.156c0 1.6889 0.73125 3.3778 1.8688 4.5333z" fill="#efefef" stroke-width=".84984" data-original="#000000"/>
	</g>
</svg>
