<svg class="" width="24" height="16" version="1.1" viewBox="0 0 7.125 4.75" xmlns="http://www.w3.org/2000/svg">
	<g transform="matrix(.073077 0 0 .073301 -.80385 -2.8954)" fill="#efefef">
		<path class="" d="m11 46.967v37.867c0 10.756 7.35 19.467 16.425 19.467h47.7c3.375 0 6.15-3.2889 6.15-7.2889v-37.956c0-10.756-7.35-19.467-16.425-19.467h-47.7c-3.375 0-6.15 3.2-6.15 7.1111zm75.75 42.133 13.2 13.689c2.1 2.2222 5.4 1.9556 7.275-0.53333 0.825-1.1556 1.275-2.5778 1.275-4v-52.622c0-3.3778-2.325-6.0444-5.1-6.1333-1.275 0-2.475 0.53333-3.375 1.5111l-13.275 13.778c-1.125 1.1556-1.725 2.8444-1.725 4.6222v25.156c0 1.6889 0.675 3.3778 1.725 4.5333z" fill="#efefef" stroke-width=".8165" data-original="#000000"/>
	</g>
</svg>
