<svg class="" width="26" height="18" version="1.1" viewBox="0 0 7.7188 5.3438" xmlns="http://www.w3.org/2000/svg">
	<g transform="matrix(.073077 0 0 .073301 -.80385 -2.8954)" fill="#efefef">
		<path class="" d="m11 47.9v42.6c0 12.1 7.9625 21.9 17.794 21.9h51.675c3.6562 0 6.6625-3.7 6.6625-8.2v-42.7c0-12.1-7.9625-21.9-17.794-21.9h-51.675c-3.6562 0-6.6625 3.6-6.6625 8zm82.062 47.4 14.3 15.4c2.275 2.5 5.85 2.2 7.8812-0.6 0.89375-1.3 1.3812-2.9 1.3812-4.5v-59.2c0-3.8-2.5188-6.8-5.525-6.9-1.3812 0-2.6812 0.6-3.6562 1.7l-14.381 15.5c-1.2188 1.3-1.8688 3.2-1.8688 5.2v28.3c0 1.9 0.73125 3.8 1.8688 5.1z" fill="#efefef" stroke-width=".90139" data-original="#000000"/>
	</g>
</svg>
