<svg class="" width="24" height="18" version="1.1" viewBox="0 0 7.125 5.3438" xmlns="http://www.w3.org/2000/svg">
	<g transform="matrix(.073077 0 0 .073301 -.80385 -2.8954)" fill="#efefef">
		<path class="" d="m11 47.9v42.6c0 12.1 7.35 21.9 16.425 21.9h47.7c3.375 0 6.15-3.7 6.15-8.2v-42.7c0-12.1-7.35-21.9-16.425-21.9h-47.7c-3.375 0-6.15 3.6-6.15 8zm75.75 47.4 13.2 15.4c2.1 2.5 5.4 2.2 7.275-0.6 0.825-1.3 1.275-2.9 1.275-4.5v-59.2c0-3.8-2.325-6.8-5.1-6.9-1.275 0-2.475 0.6-3.375 1.7l-13.275 15.5c-1.125 1.3-1.725 3.2-1.725 5.2v28.3c0 1.9 0.675 3.8 1.725 5.1z" fill="#efefef" stroke-width=".86603" data-original="#000000"/>
	</g>
</svg>
