<svg class="" width="32" height="16" version="1.1" viewBox="0 0 9.5 4.75" xmlns="http://www.w3.org/2000/svg">
	<g transform="matrix(.073077 0 0 .073301 -.80385 -2.8954)" fill="#efefef">
		<path class="" d="m11 46.967v37.867c0 10.756 9.8 19.467 21.9 19.467h63.6c4.5 0 8.2-3.2889 8.2-7.2889v-37.956c0-10.756-9.8-19.467-21.9-19.467h-63.6c-4.5 0-8.2 3.2-8.2 7.1111zm101 42.133 17.6 13.689c2.8 2.2222 7.2 1.9556 9.7-0.53333 1.1-1.1556 1.7-2.5778 1.7-4v-52.622c0-3.3778-3.1-6.0444-6.8-6.1333-1.7 0-3.3 0.53333-4.5 1.5111l-17.7 13.778c-1.5 1.1556-2.3 2.8444-2.3 4.6222v25.156c0 1.6889 0.9 3.3778 2.3 4.5333z" fill="#efefef" stroke-width=".94281" data-original="#000000"/>
	</g>
</svg>
