<svg class="" width="28" height="16" version="1.1" viewBox="0 0 8.3125 4.75" xmlns="http://www.w3.org/2000/svg">
	<g transform="matrix(.073077 0 0 .073301 -.80385 -2.8954)" fill="#efefef">
		<path class="" d="m11 46.967v37.867c0 10.756 8.575 19.467 19.163 19.467h55.65c3.9375 0 7.175-3.2889 7.175-7.2889v-37.956c0-10.756-8.575-19.467-19.162-19.467h-55.65c-3.9375 0-7.175 3.2-7.175 7.1111zm88.375 42.133 15.4 13.689c2.45 2.2222 6.3 1.9556 8.4875-0.53333 0.9625-1.1556 1.4875-2.5778 1.4875-4v-52.622c0-3.3778-2.7125-6.0444-5.95-6.1333-1.4875 0-2.8875 0.53333-3.9375 1.5111l-15.487 13.778c-1.3125 1.1556-2.0125 2.8444-2.0125 4.6222v25.156c0 1.6889 0.7875 3.3778 2.0125 4.5333z" fill="#efefef" stroke-width=".88192" data-original="#000000"/>
	</g>
</svg>
