<?xml version="1.0" encoding="UTF-8" standalone="no"?>
<svg
   width="512"
   height="512"
   fill="none"
   version="1.1"
   id="svg6"
   sodipodi:docname="rumble512-red.svg"
   inkscape:version="1.2.2 (b0a8486541, 2022-12-01)"
   inkscape:export-filename="rumble-512.png"
   inkscape:export-xdpi="96"
   inkscape:export-ydpi="96"
   xmlns:inkscape="http://www.inkscape.org/namespaces/inkscape"
   xmlns:sodipodi="http://sodipodi.sourceforge.net/DTD/sodipodi-0.dtd"
   xmlns="http://www.w3.org/2000/svg"
   xmlns:svg="http://www.w3.org/2000/svg">
  <defs
     id="defs10" />
  <sodipodi:namedview
     id="namedview8"
     pagecolor="#ffffff"
     bordercolor="#000000"
     borderopacity="0.25"
     inkscape:showpageshadow="2"
     inkscape:pageopacity="0.0"
     inkscape:pagecheckerboard="0"
     inkscape:deskcolor="#d1d1d1"
     showgrid="false"
     inkscape:zoom="1"
     inkscape:cx="37.5"
     inkscape:cy="249"
     inkscape:window-width="1920"
     inkscape:window-height="1006"
     inkscape:window-x="0"
     inkscape:window-y="0"
     inkscape:window-maximized="1"
     inkscape:current-layer="svg6" />
  <path
     d="m 305.5516,287.24575 c 18.73922,-14.83522 18.73922,-43.72485 0,-59.02854 a 428.65965,428.65965 0 0 0 -87.13737,-56.06153 c -21.55008,-10.30655 -45.59877,4.0602 -49.03431,28.57734 -5.3094,37.47843 -6.24638,75.26917 -2.81089,111.18605 2.34243,24.82946 26.07877,39.66468 47.9412,30.13891 A 396.64686,396.64686 0 0 0 305.5516,287.40192 Z M 445.62732,178.0898 A 118.21326,118.21326 0 0 1 445.93933,337.21699 528.44602,528.44602 0 0 1 181.092,495.40731 103.37804,103.37804 0 0 1 56.476167,423.10513 C 25.712576,318.0093 30.241223,199.1714 59.911666,93.607154 75.527654,38.17028 127.68515,3.3465514 181.40425,16.151724 280.87831,39.888028 374.26206,100.94666 445.62732,178.0898 Z"
     fill="#85c742"
     id="path4"
     style="stroke-width:15.616" />
</svg>
