<?xml version="1.0" encoding="UTF-8" standalone="no"?>
<svg
   width="35"
   height="35"
   fill="none"
   version="1.1"
   id="svg6"
   xmlns="http://www.w3.org/2000/svg"
   xmlns:svg="http://www.w3.org/2000/svg">
  <defs
     id="defs10" />
  <path
     d="m 20.673123,19.50088 c 1.2,-0.95 1.2,-2.8 0,-3.78 a 27.45,27.45 0 0 0 -5.58,-3.59 c -1.38,-0.66 -2.92,0.26 -3.14,1.83 -0.34,2.4 -0.4,4.82 -0.18,7.12 0.15,1.59 1.67,2.54 3.07,1.93 a 25.4,25.4 0 0 0 5.83,-3.5 z m 8.97,-6.99 a 7.57,7.57 0 0 1 0.02,10.19 33.84,33.84 0 0 1 -16.96,10.13 6.62,6.62 0 0 1 -7.9799996,-4.63 c -1.97,-6.73 -1.68,-14.34 0.22,-21.0999995 1,-3.55 4.34,-5.78 7.7799996,-4.96 6.37,1.52 12.35,5.43 16.92,10.3699995 z"
     fill="#85c742"
     id="path4" />
</svg>
