<svg xmlns="http://www.w3.org/2000/svg" version="1.1" xmlns:xlink="http://www.w3.org/1999/xlink" xmlns:svgjs="http://svgjs.com/svgjs" width="512" height="512" x="0" y="0" viewBox="0 0 24 24" style="enable-background:new 0 0 512 512" xml:space="preserve" class=""><g transform="matrix(1.2,0,0,1.2,-2.399999999999995,-2.4002357006072934)"><path d="M21.561 10.172a1 1 0 0 0-.932-.1l-3.675 1.47A3 3 0 0 0 14 9H5a3 3 0 0 0-3 3v7a3 3 0 0 0 3 3h9a3 3 0 0 0 2.954-2.541l3.675 1.47A1 1 0 0 0 22 20v-9a1 1 0 0 0-.439-.828zM14 20H5a1 1 0 0 1-1-1v-7a1 1 0 0 1 1-1h9a1 1 0 0 1 1 1v7a1 1 0 0 1-1 1zm6-1.477-3-1.2v-3.646l3-1.2v6.047zM6.2 5.344a4.714 4.714 0 0 1 6.6 0 1 1 0 0 0 1.4-1.425 6.721 6.721 0 0 0-9.4 0 1 1 0 0 0 1.4 1.425z" fill="#ffffff" data-original="#000000" class=""></path><path d="M7.2 6.287a1 1 0 1 0 1.4 1.425 1.283 1.283 0 0 1 1.8 0 1 1 0 1 0 1.4-1.425 3.29 3.29 0 0 0-4.6 0z" fill="#ffffff" data-original="#000000" class=""></path></g></svg>